/* XPM */
static char *_1187_4310f27c41a17fc7a5e98c0a8a624338f0925e78dcfe651399f4517b69570aac[] = {
/* columns rows colors chars-per-pixel */
"30 30 184 2 ",
"   c #3C1A1F",
".  c #6F261E",
"X  c #481E27",
"o  c #402629",
"O  c #4D252A",
"+  c #53292B",
"@  c #55252A",
"#  c #482536",
"$  c #5C2730",
"%  c #582C34",
"&  c #543637",
"*  c #563738",
"=  c #5C3639",
"-  c #563838",
";  c #5A393A",
":  c #5B3237",
">  c #692927",
",  c #652B2E",
"<  c #6C2D2D",
"1  c #76312E",
"2  c #78332F",
"3  c #622F34",
"4  c #6D2D31",
"5  c #712F33",
"6  c #6E3134",
"7  c #62353B",
"8  c #68323E",
"9  c #603E3F",
"0  c #6C3D3F",
"q  c #743232",
"w  c #7A3533",
"e  c #733A36",
"r  c #7C3936",
"t  c #7C3A3B",
"y  c #743A3C",
"u  c #7B403C",
"i  c #542C41",
"p  c #613F40",
"a  c #713F4C",
"s  c #624041",
"d  c #6B4648",
"f  c #6F4A4B",
"g  c #734042",
"h  c #794640",
"j  c #734D4E",
"k  c #795354",
"l  c #87312D",
"z  c #8A322C",
"x  c #823435",
"c  c #8C3634",
"v  c #813936",
"b  c #8D3833",
"n  c #833639",
"m  c #86393C",
"M  c #8A3A3C",
"N  c #953C34",
"B  c #923E3C",
"V  c #8C423D",
"C  c #94453E",
"Z  c #9B423E",
"A  c #96483F",
"S  c #9B493F",
"D  c #BE432D",
"F  c #A54137",
"G  c #A1423A",
"H  c #AA463A",
"J  c #AC4B3D",
"K  c #B34636",
"L  c #BF4735",
"P  c #BD4936",
"I  c #BA4D3C",
"U  c #B14C3F",
"Y  c #D9472D",
"T  c #C64B35",
"R  c #CF4E34",
"E  c #C34C38",
"W  c #DB4D32",
"Q  c #CC553E",
"!  c #D2543C",
"~  c #D4583F",
"^  c #DE583C",
"/  c #DD5537",
"(  c #E6472A",
")  c #E6492C",
"_  c #E65335",
"`  c #E95435",
"'  c #E35639",
"]  c #EA5739",
"[  c #E25C3E",
"{  c #EC5C3B",
"}  c #EE613E",
"|  c #843D45",
" . c #8A3C41",
".. c #903E41",
"X. c #804242",
"o. c #8E4541",
"O. c #8D4A43",
"+. c #934342",
"@. c #9B4544",
"#. c #934A44",
"$. c #9B4D46",
"%. c #934E4B",
"&. c #9B4B49",
"*. c #95524C",
"=. c #99514C",
"-. c #9C5651",
";. c #AF4D41",
":. c #A24A49",
">. c #A45347",
",. c #AD5747",
"<. c #AB594B",
"1. c #B75242",
"2. c #BE5241",
"3. c #B0544B",
"4. c #A75450",
"5. c #AA5653",
"6. c #B15952",
"7. c #BF614A",
"8. c #B06257",
"9. c #B76856",
"0. c #B76A59",
"q. c #B37256",
"w. c #8A636A",
"e. c #9B7B7F",
"r. c #AB6A62",
"t. c #A77173",
"y. c #AF7B79",
"u. c #C35743",
"i. c #C95641",
"p. c #C55844",
"a. c #CC5B45",
"s. c #C45B49",
"d. c #CC5F4B",
"f. c #DB5D43",
"g. c #D25941",
"h. c #ED5D40",
"j. c #C4644C",
"k. c #CB634B",
"l. c #C9684D",
"z. c #D3624C",
"x. c #DA654C",
"c. c #DA6044",
"v. c #C46153",
"b. c #CA6351",
"n. c #C36B55",
"m. c #CB6E54",
"M. c #CC6C5A",
"N. c #D46A54",
"B. c #D26F5E",
"V. c #D76952",
"C. c #CF7155",
"Z. c #CA745C",
"A. c #DF7257",
"S. c #D5705B",
"D. c #E66243",
"F. c #ED6443",
"G. c #EF6A45",
"H. c #E3654A",
"J. c #EC664A",
"K. c #E46A4E",
"L. c #ED6A4A",
"P. c #F26444",
"I. c #F06A47",
"U. c #F26748",
"Y. c #F06D4B",
"T. c #F1724D",
"R. c #E26B50",
"E. c #ED6D50",
"W. c #EB7253",
"Q. c #EF795E",
"!. c #F17353",
"~. c #F27A56",
"^. c #F37759",
"/. c #F37B5A",
"(. c #CB7761",
"). c #CF7D64",
"_. c #D27363",
"`. c #E67D60",
"'. c #F67D60",
"]. c #F4805F",
"[. c #F68363",
"{. c #F78969",
"}. c #F48966",
"|. c None",
/* pixels */
"|.|.|.|.e.&.:.&.&.:.+.M +.@.B B B B B B B B C @.:.|.|.|.|.|.",
"|.|.|.|.k #.%.C.C.N.m.l.l.l.k.j.j.7.,.C A +.A S $.|.|.|.|.|.",
"|.|.|.|.j o.#.T.z.d.p.Q p.g.} } p.U ;.M m M B S #.|.|.|.|.|.",
"|.|.|.|.f C +.~.~.T.G.G.I.X.} } ^.G.F.f.J n M C C |.|.|.|.|.",
"|.|.|.|.f +.8 V.~.T.G.Y.Y.| } { ^.G.G.F.~ C Z J V |.|.|.|.|.",
"|.|.|.|.f V u V.].T.T.Y.Y.| } } !.F.F.J.D.Q ! j.V |.|.|.|.|.",
"|.|.|.|.f d #.W.}.}.].].].k.{ ] L.^.~.~.^.K.h.9.V |.|.|.|.|.",
"|.|.|.|.d i r F.Y.G.1.F.I.} { ] ] h.G.J.F.F.F.n.o.|.|.|.|.|.",
"|.|.|.|.p 3 , } 2.v m x U x ] } x.u.u.2.2.1.f.7.#.|.|.|.|.|.",
"|.|.|.|.; , + a.L.D.~ ! ' , ] } ^.F.G.F.G.d.f.n.#.|.|.|.|.|.",
"|.|.|.|.; 1 , F.L.} F.} ` , ] { ^.F.F.F.h.p.f.n.%.|.|.|.|.|.",
"|.|.|.|.; 2 1 } ~.Y.Y.Y.h.w ` ` !.^.^.^.^.N.R.Z.-.|.|.|.|.|.",
"|.|.|.|.9 w 5 ] { F.h.^ ] ] ` { L.^.^./.].].Q.(.-.|.|.|.|.|.",
"|.|.|.|.s v w { Q I Z G K H { L.A.M.B._.Q.Q./.).-.|.|.|.|.|.",
"|.|.|.|.s v w } P.R H I L t L.Y.[.!.~._.C.q.0.0.-.|.|.|.|.|.",
"|.|.|.|.9 w w } P.{ { [ ] y Y.Y.^.L.L.$.> 0 6 >.=.|.|.|.|.|.",
"|.|.|.|.; q w } G.{ { { ] q F.L.^.!.N.N %.w.r.0.*.|.|.|.|.|.",
"|.|.|.|.; 1 q { G.F.G.{ ] E ] h.E.!.'.. y.t.M.M.*.|.|.|.|.|.",
"|.|.|.|.; < w ' R T T T L W _ ] f.a.d.b.s.f.G.n.*.|.|.|.|.|.",
"|.|.|.|.; 2 @ P ] Y Y Y Y 4 h.h.'.K.K.H.H.s.x.Z.=.|.|.|.|.|.",
"|.|.|.|.* >   z W ( ) ) ` 4 } P.'.Y.T.Y.!.z.V.M.#.|.|.|.|.|.",
"|.|.|.|.& >   l W ( ) ) ] 5 { P.'.E.!.!.!.z.x.M.#.|.|.|.|.|.",
"|.|.|.|.* : O z x.P.U.I.Y.;.] } [.{.{.{.}.Q.R.Z.*.|.|.|.|.|.",
"|.|.|.|.* # X c c / { ] ` ` ] ] J.!.!.W.W.!.~.Z.-.|.|.|.|.|.",
"|.|.|.|.- % O b n x b K K b ] { K.s.b.b.b.v.b.).=.|.|.|.|.|.",
"|.|.|.|.- 1 O M Z x b T ` 4 ` } '.!.W.W.^.N.v.Z.&.|.|.|.|.|.",
"|.|.|.|.; w $ N :.c H F P 4 ` } ^.T.x.R.V.3.&.>.$.|.|.|.|.|.",
"|.|.|.|.; q 4 g.f.H.K.H.J.B { } '.W.v.5.5.:.+.<.$.|.|.|.|.|.",
"|.|.|.|.X.w @ N H u.2.b.W.L.J.c.k.6.4.4.5.6.:.8.&.|.|.|.|.|.",
"|.|.|.|. .v o + O O + % e e e u 7 7 = = 7 a 0 u &.|.|.|.|.|."
};
