/* XPM */
static char *_1014_80d14635d79c8ad160b2bbe04a41b358c06887b5b8756fa84301cb7f72edc304[] = {
/* columns rows colors chars-per-pixel */
"28 30 215 2 ",
"   c #0A0908",
".  c #080D08",
"X  c #090D09",
"o  c #0E0A0E",
"O  c #0C0D0C",
"+  c #110908",
"@  c #140A0A",
"#  c #1B0B09",
"$  c #1A090C",
"%  c #1C120F",
"&  c #1F1C0F",
"*  c #0A0B10",
"=  c #0D0816",
"-  c #0E0916",
";  c #080C1B",
":  c #1C1214",
">  c #1F1116",
",  c #1F1417",
"<  c #1B1817",
"1  c #111018",
"2  c #17151C",
"3  c #19131B",
"4  c #1C121A",
"5  c #1D111E",
"6  c #200D0A",
"7  c #271009",
"8  c #33120B",
"9  c #37150B",
"0  c #31160C",
"q  c #251A1D",
"w  c #3D260A",
"e  c #382910",
"r  c #170F20",
"t  c #1D242A",
"y  c #2B2224",
"u  c #322827",
"i  c #3E373F",
"p  c #5C100A",
"a  c #4B0B10",
"s  c #4E0E11",
"d  c #5C0B10",
"f  c #5F161B",
"g  c #70190A",
"h  c #6D0E12",
"j  c #6F0C17",
"k  c #700B17",
"l  c #700D14",
"z  c #6E1010",
"x  c #42270E",
"c  c #553917",
"v  c #551C25",
"b  c #423138",
"n  c #69272A",
"m  c #7E5111",
"M  c #8F0507",
"N  c #9D060C",
"B  c #960908",
"V  c #9B0809",
"C  c #810910",
"Z  c #920812",
"A  c #87171E",
"S  c #A0070C",
"D  c #BB0303",
"F  c #BC0101",
"G  c #BD0201",
"H  c #BE0201",
"J  c #BF0301",
"K  c #BF0103",
"L  c #BF0202",
"P  c #BB0500",
"I  c #BD0501",
"U  c #BE0402",
"Y  c #BD0304",
"T  c #BE0204",
"R  c #BF0204",
"E  c #BE0304",
"W  c #BE0106",
"Q  c #BF0206",
"!  c #BB0405",
"~  c #BB0507",
"^  c #BC0404",
"/  c #BE0404",
"(  c #BE0407",
")  c #BE010A",
"_  c #B80508",
"`  c #B8070A",
"'  c #A8180F",
"]  c #B8120B",
"[  c #A10511",
"{  c #B10E10",
"}  c #A91D1E",
"|  c #B21214",
" . c #BA1312",
".. c #BF1A16",
"X. c #BA151E",
"o. c #B41A18",
"O. c #B51B1C",
"+. c #B51C1E",
"@. c #BF1918",
"#. c #BC191F",
"$. c #89250F",
"%. c #91260E",
"&. c #9F2D10",
"*. c #83301B",
"=. c #B82E0F",
"-. c #B9300F",
";. c #B33319",
":. c #AB1C20",
">. c #833523",
",. c #AE2029",
"<. c #BF3921",
"1. c #C10201",
"2. c #C30103",
"3. c #C50101",
"4. c #C60000",
"5. c #C70102",
"6. c #C30A03",
"7. c #C90E05",
"8. c #CB0E06",
"9. c #C20008",
"0. c #C00208",
"q. c #C40009",
"w. c #C6000A",
"e. c #CF1C07",
"r. c #C51209",
"t. c #CE1A0B",
"y. c #D31802",
"u. c #D31807",
"i. c #D01B07",
"p. c #D51B05",
"a. c #D61B05",
"s. c #D41A06",
"d. c #D51C05",
"f. c #D21808",
"g. c #D51B08",
"h. c #C11E14",
"j. c #C51618",
"k. c #DC2807",
"l. c #DD2509",
"z. c #DD2609",
"x. c #DD240C",
"c. c #CB2516",
"v. c #CA331F",
"b. c #DD3014",
"n. c #DF3B16",
"m. c #DD3B1D",
"M. c #E32F06",
"N. c #EA2C05",
"B. c #EA2F05",
"V. c #ED2E06",
"C. c #E42309",
"Z. c #E32909",
"A. c #F32E04",
"S. c #E23102",
"D. c #E73203",
"F. c #E43107",
"G. c #E83300",
"H. c #E93300",
"J. c #E83301",
"K. c #E93301",
"L. c #EA3301",
"P. c #E93102",
"I. c #E83202",
"U. c #E83203",
"Y. c #EB3202",
"T. c #ED3102",
"R. c #EB3004",
"E. c #ED3307",
"W. c #E33814",
"Q. c #CB2921",
"!. c #C63024",
"~. c #C92E38",
"^. c #B04D12",
"/. c #9C671D",
"(. c #A26613",
"). c #A46717",
"_. c #A95139",
"`. c #E86D17",
"'. c #EF7F11",
"]. c #DD4C26",
"[. c #D64228",
"{. c #C4502C",
"}. c #D2582A",
"|. c #D44332",
" X c #DF5731",
".X c #E74C2C",
"XX c #E54D2F",
"oX c #E64D2F",
"OX c #E54E2F",
"+X c #E84C2E",
"@X c #E14E34",
"#X c #E45337",
"$X c #E25535",
"%X c #E5523A",
"&X c #E2563A",
"*X c #CB5C46",
"=X c #C65555",
"-X c #CC5655",
";X c #C5565B",
":X c #CC515E",
">X c #D25058",
",X c #D17359",
"<X c #ED9515",
"1X c #F19211",
"2X c #F49417",
"3X c #F59218",
"4X c #F8901A",
"5X c #FB9B1F",
"6X c #E68334",
"7X c #E79331",
"8X c #F7A83F",
"9X c #C98C43",
"0X c #F7A245",
"qX c #F5AB46",
"wX c None",
/* pixels */
"wXwXwXwXwXwXwXwXwXwXwXwXwXwXwXwXwXwXwXwXwXwXwXwXwXwXwXwX",
"wXwXwXwXwXwXwXwXwXwXwXwXwXwXwXwXwXwXwXwXwXwXwXwXwXwXwXwX",
"wXwXwXwXwXwXwXwXwXwXwXwXwXwXwXwXwXwXwXwXwXwXwXwXwXwXwXwX",
"wXwXwXwXwXwXwXwXwXwXwXwXwXwXwXwXwXwXwXwXwXwXwXwXwXwXwXwX",
"wXwXwXwXwXwXwXwXwXwXwXwXwXwXwXwXwXwXwXwXwXwXwXwXwXwXwXwX",
"wXwXwXwXwXwXwXwXwX*X.X@XXXOXXXoX+X,XwXwXwXwXwXwXwXwXwXwX",
"wXwXwXwXwXwXwXwXwXv.C.x.z.k.l.Z.E.}.wXwXwXwXwXwXwXwXwXwX",
"wXwXwXwXwXwXwX;XO.P U G 9.q.2.y.A.T.b.wXwXwXwXwXwXwXwXwX",
"wXwXwXwXwXwXwX=X@.4.w.S B V N ' =.-.;.wXwXwXwXwXwXwXwXwX",
"wXwXwXwXwXwXwX:X#.F ~ p 8 7 $ # 6 0 9 wXwXwXwXwXwXwXwXwX",
"wXwXwXwXwXwXwX>Xj.D Y ^.).c * . + /.(.wXwXwXwXwXwXwXwXwX",
"wXwXwXwXwXwXwX-X..0.W `.1Xm = o @ <X2XwXwXwXwXwXwXwXwXwX",
"wXwXwXwXwXwXwXwX,.( ! g w & ; O - x e wXwXwXwXwXwXwXwXwX",
"wXwXwXwXwXwXwXwXwX .` a % : 5 4 3 , y 9X0X8XqXwXwXwXwXwX",
"wXwXwXwXwXwXwXwXwXo.^ C j k l h z n b {.].4X5XwXwXwXwXwX",
"wXwXwXwXwXwXwXwXwXX.5.3.E T L K ) ~.wX] I '.3XwXwXwXwXwX",
"wXwXwXwXwXwXwXwXwXQ.e.6.H 7.u.f.i.|.wXc.t.6X7XwXwXwXwXwX",
"wXwXwXwXwXwXwXwXwXm.V.8.J s.U.I.F.&XwXn.N.wXwXwXwXwXwXwX",
"wXwXwXwXwXwXwXwXwX>.%.{ Q g.J.G.R.$XwX*.$.wXwXwXwXwXwXwX",
"wXwXwXwXwXwXwXwXwXt > Z E d.G.J.P. XwXq r wXwXwXwXwXwXwX",
"wXwXwXwXwXwXwXwXwXv d [ R p.K.H.D.#XwXf s wXwXwXwXwXwXwX",
"wXwXwXwXwXwXwXwXwX:./ U 1.a.Y.L.B.%XwX| _ wXwXwXwXwXwXwX",
"wXwXwXwXwXwXwXwXwXA M } +.!.[.<.&._.wXh.r.wXwXwXwXwXwXwX",
"wXwXwXwXwXwXwXwXwX< X wXwXwXwXu 2 i wXW.S.wXwXwXwXwXwXwX",
"wXwXwXwXwXwXwXwXwXwX  wXwXwXwXwX1 wXwXwXM.wXwXwXwXwXwXwX",
"wXwXwXwXwXwXwXwXwXwXwXwXwXwXwXwXwXwXwXwXwXwXwXwXwXwXwXwX",
"wXwXwXwXwXwXwXwXwXwXwXwXwXwXwXwXwXwXwXwXwXwXwXwXwXwXwXwX",
"wXwXwXwXwXwXwXwXwXwXwXwXwXwXwXwXwXwXwXwXwXwXwXwXwXwXwXwX",
"wXwXwXwXwXwXwXwXwXwXwXwXwXwXwXwXwXwXwXwXwXwXwXwXwXwXwXwX",
"wXwXwXwXwXwXwXwXwXwXwXwXwXwXwXwXwXwXwXwXwXwXwXwXwXwXwXwX"
};
