/* XPM */
static char *_361056a928a4ebf894f2088d94de288ZhqKKs0YzDCVvScN[] = {
/* columns rows colors chars-per-pixel */
"31 34 69 1 ",
"  c #1A2334",
". c #1B253B",
"X c #1D2A3C",
"o c #212739",
"O c #222A3D",
"+ c #28323D",
"@ c #1D2B42",
"# c #1F3046",
"$ c #252E45",
"% c #292F46",
"& c #272E48",
"* c #292E4A",
"= c #253146",
"- c #293246",
"; c #25334A",
": c #2A334B",
"> c #29334C",
", c #2C334D",
"< c #29344D",
"1 c #2A354E",
"2 c #2D344C",
"3 c #2C354C",
"4 c #2D374F",
"5 c #25384F",
"6 c #26384F",
"7 c #2F3B4A",
"8 c #283A4E",
"9 c #2C384E",
"0 c #2D384E",
"q c #30374D",
"w c #31394E",
"e c #2B3650",
"r c #2A3751",
"t c #2D3650",
"y c #2D3750",
"u c #2D3651",
"i c #263951",
"p c #263A52",
"a c #2A3950",
"s c #2F3951",
"d c #2E3853",
"f c #2C3C52",
"g c #2D3955",
"h c #2B3E55",
"j c #293D56",
"k c #2C3D57",
"l c #2F3B58",
"z c #303750",
"x c #303A52",
"c c #323A53",
"v c #323B53",
"b c #303954",
"n c #313B55",
"m c #393E53",
"M c #343E59",
"N c #2D4058",
"B c #2D4159",
"V c #2F425B",
"C c #334056",
"Z c #344355",
"A c #384757",
"S c #31425A",
"D c #35405A",
"F c #39475B",
"G c #3C4B5D",
"H c #354764",
"J c #354861",
"K c #374A65",
"L c #3F4D63",
/* pixels */
"4y4sglr>:4:qn4->-:yy10x4r:>>>-;",
"-:,=->;&-4>>>%-4>rr>;&4$;$;>>-$",
";0x4%;--$$$y>;;,y>>z-*-;%&;sy-$",
"&:sx%$;-4r%--$&-yr>z-$$-->-gny$",
";14x4$$-s>-0:$$44>4q=-=-%4;rx>$",
">%--$$-$441w4$$O$-2=+741-$$>&$ ",
"y;$$$---$n07M14nx4qMSJKHk6hjVh;",
"yy4-4q;$;x04s=$=,-$:6hSV6$i5;;@",
"4->44,$$4q44>&;$=7:6#NNN6@;#;##",
"z4$$;%$$:24---;%-2:6#NNNp@#;#;#",
"g-=>1$$---,--444q-#6NNNNp@;f;66",
"y&-yn>$&-qq-%4xy11#N#NNN6;pVB;#",
"-$$%,-O-%%--=$&$=;$rN5#5##NNB;#",
"MyynMM%nn4->0:>k1;X=#5#5#+NNN=#",
"4&;>y>$--;$$:-4r#.X###+=NN#NN+=",
"-$&;>>;$$&-,$-r>@@.65X5NN#N;#N#",
"->-&;-::=%-4--4$@..;1$66=@$;#=@",
">-4-$;;:$;$$,$$q4:9:44xxxx41a41",
",&1$$&$&*;$$-1+w2-;1,-$$10:--$=",
"4;>&;->---;$-yqz-$;wz%$$$-4:4;=",
"x$$>-:4-04;--xxnn;$;-y>;-O%44--",
"z$$>,qx$4w44qxwnx-$$$4yy4:O$-$-",
">O-1,y,$--4z0w1k>-&;>ygnxx$$$%:",
"$$&$O$$..o$$;==9&$&;>nyyxx$-xn$",
"*zzyn,**,n0986;7>-;-->sxxx$$:-4",
"%***,***>s0668#Cy4>44>4xq4$--=-",
",$$*****,45i;;5w>&=-,%1xw-;:---",
",*&&****$16i;;5N&$&$O&4:-$&4:22",
"t%**y*$$$1hi;iimg1nn4--$=$-4q22",
"**%$&$&*&;==#==y:$-4;=;$$$$;2--",
"bMMnr*,yMmns91x>4$424qFLLGFmDmv",
"%zzz$&,*1---=;x:-%wmmxZGGGZw00-",
"%>4xy$-%-$----*4---xxmZGGAZ72--",
"%>-qz-$$$$$;,-&44-&$$:ZZZZM-7--"
};
