/* XPM */
static char *_b2a24e754da4df4cc7fb3b9171dc70aAXl8nzQGmAJEhV2n[] = {
/* columns rows colors chars-per-pixel */
"30 30 175 2 ",
"   c None",
".  c #1A1618",
"X  c #1B1618",
"o  c #1B1619",
"O  c #1B1719",
"+  c #1A171A",
"@  c #1E171A",
"#  c #1F171A",
"$  c #1B191B",
"%  c #1C1819",
"&  c #1C181A",
"*  c #1D181A",
"=  c #1D191B",
"-  c #1C1A1C",
";  c #1C1A1D",
":  c #1D1A1D",
">  c #1C1D1F",
",  c #211B1D",
"<  c #231B1C",
"1  c #26181E",
"2  c #211C1D",
"3  c #201C1E",
"4  c #221C1E",
"5  c #241C1C",
"6  c #251D1D",
"7  c #251E1F",
"8  c #311C1E",
"9  c #311D1E",
"0  c #1C1F21",
"q  c #261F20",
"w  c #271F20",
"e  c #2B1920",
"r  c #331A25",
"t  c #351B25",
"y  c #371B27",
"u  c #351F25",
"i  c #381B27",
"p  c #391C28",
"a  c #3B1C28",
"s  c #1D2023",
"d  c #1E2426",
"f  c #1F2527",
"g  c #1F2528",
"h  c #1F2629",
"j  c #272021",
"k  c #2A2222",
"l  c #2B2324",
"z  c #2C2324",
"x  c #202629",
"c  c #232629",
"v  c #20272A",
"b  c #23292C",
"n  c #242B2E",
"m  c #392925",
"M  c #332828",
"N  c #362A29",
"B  c #282F33",
"V  c #283034",
"C  c #2A3337",
"Z  c #2B3337",
"A  c #4E1F31",
"S  c #511F33",
"D  c #44302A",
"F  c #47322C",
"G  c #4B332C",
"H  c #4D352E",
"J  c #4E342E",
"K  c #4F362E",
"L  c #512432",
"P  c #5D2239",
"I  c #5F243C",
"U  c #423433",
"Y  c #473735",
"T  c #443936",
"R  c #483835",
"E  c #4A3A37",
"W  c #4B3A37",
"Q  c #473C39",
"!  c #4A3B39",
"~  c #4C3B38",
"^  c #4D3C38",
"/  c #4B3F3C",
"(  c #553A31",
")  c #553B31",
"_  c #503E3B",
"`  c #523F3C",
"'  c #61223C",
"]  c #62233C",
"[  c #64233D",
"{  c #67233E",
"}  c #60243D",
"|  c #65263D",
" . c #7F303D",
".. c #4C403D",
"X. c #4E423E",
"o. c #52403C",
"O. c #53403D",
"+. c #53413D",
"@. c #55423E",
"#. c #5B463F",
"$. c #60463F",
"%. c #692440",
"&. c #6A2440",
"*. c #6E2640",
"=. c #474345",
"-. c #4A4648",
";. c #544240",
":. c #574440",
">. c #574540",
",. c #5C4744",
"<. c #5B4844",
"1. c #5D4845",
"2. c #5E4B45",
"3. c #5F4B47",
"4. c #5E4E49",
"5. c #5F504A",
"6. c #624840",
"7. c #634D4A",
"8. c #634E4A",
"9. c #654F4B",
"0. c #60504A",
"q. c #62514C",
"w. c #66534C",
"e. c #726057",
"r. c #776258",
"t. c #B13D3E",
"y. c #AF423D",
"u. c #862E40",
"i. c #8A5E4E",
"p. c #93604B",
"a. c #96624C",
"s. c #97634D",
"d. c #916452",
"f. c #956451",
"g. c #966552",
"h. c #9E6954",
"j. c #A46A52",
"k. c #A56B53",
"l. c #AB6856",
"z. c #A96D54",
"x. c #B66E5B",
"c. c #B07157",
"v. c #B27358",
"b. c #B9775B",
"n. c #BE7A5D",
"m. c #8F7164",
"M. c #937B6F",
"N. c #C07C60",
"B. c #C27D61",
"V. c #C67F60",
"C. c #9E8577",
"Z. c #CD8364",
"A. c #CE8464",
"S. c #CF8565",
"D. c #D08565",
"F. c #D18665",
"G. c #D08666",
"H. c #D28766",
"J. c #D38766",
"K. c #D58968",
"L. c #D19E85",
"P. c #CAA997",
"I. c #E0A082",
"U. c #E2A486",
"Y. c #E3AB8F",
"T. c #D7B4A0",
"R. c #D9B6A2",
"E. c #DAB7A3",
"W. c #EFBCA2",
"Q. c #E3BEA9",
"!. c #E7C2AB",
"~. c #F3C6AD",
"^. c #F6CCB3",
"/. c #F7CDB5",
"(. c #F8D0B8",
/* pixels */
"                                  . .               . .     ",
"                                  w w               . .     ",
"  . .     . . . . . . . . . . . w w.9.j . . . . . .         ",
"  . .     & o o . & . & & . & . 6 9.9.j . & . . . .         ",
"      . & R ! W R +.7.7.7.7.7.7.7.9.9.7.7.7.7.z . .         ",
"  . w M N R ~ ~ ^ @.9.9.9.9.9.9.9.9.9.9.9.9.9.~ U U <       ",
"  . k Y ^ ~ ~ ~ ^ @.9.9.9.9.9.9.9.9.9.9.9.9.9.9.w.7.< .     ",
"  . k Y ^ ~ ~ ~ ~ ` ,.,.3.9.9.9.9.9.9.9.9.9.9.9.9.7.< .     ",
"  . k Y ~ ~ ~ ~ ^ ^ W ^ >.9.9.9.9.9.9.9.9.9.9.9.7.7.< .     ",
"  . k Y ~ ~ ~ $.B.B.B.B.g._ _ _ _ 9.9.9.9.9.9.9.w.7.3.;.. . ",
"  . k Y ~ ~ ~ 6.G.J.J.J.h.W W ~ _ 9.9.q.9.9.9.9.7.7.w.,.. . ",
"  . k Y ~ ~ ~ 6.G.J.J.J.G.A.A.G.A.G.G.A.G.G.D.D o < & &     ",
"  . z ~ _ ~ ~ 6.F.G.A.A.G.K.K.K.K.K.K.K.K.A.A.D . . . .     ",
"  . 4.R.!.#.~ 6.F.a.< 5 r.^.^.^.^.^.^.^./.w.6 & . q         ",
"  X #.L.Y.d.i.g.G.p.X X e.(.(.(.(.(.(.(.(.4.. . . 3         ",
"  X K a.j.F.J.J.J.j.G G m.(.(.(.(.(.(.(.(.q.. . . 3         ",
"      . < V.G.K.J.J.J.J.U.(.(.(.(.(.(.(.(.(.(.X.. 3         ",
"      . < c.b.n.J.J.J.J.I.~./.(.(.(.(.(.(.Q.R./ . 3         ",
"          X X m G.J.J.J.J.J.W.(.(.(.(.(./.q..               ",
"      . o A S L ) ) ) ) ) ) 3.q.q.q.q.q.q.T                 ",
"      X o { &.P . . . . . . . . X X . o .                   ",
"    e i a { &.[ p y i i i i i y y i p o . .                 ",
"=.& y ' { { &.&.&.&.&.&.&.&.&.&.{ *.&.1 . . .               ",
"=.& J l.x.M e t &.&.&.*.u.t.t.y.t.t.t.9 . M.P.... .         ",
"=.& K z.v.6 . 1 I [ I { u.y.y.y.y.y.y.9 X C.R.Q . .         ",
"=.: o o . . . & v v h h n Z C C C C Z : X $ . . . .         ",
"-.& X X . . . $ h f f f b V V B B C C : . . . . . .         ",
"          . . $ h s X $ .   . . : C C : .                   ",
"          . . $ 0 > . .     . . o c c : .                   ",
"          . . . . .         . . . . .                       "
};
