/* XPM */
static char *_3373_8b63e857154ae0bbc0a1469c4edc46d8acbe1419047a058fffd04ef7ab4faba5[] = {
/* columns rows colors chars-per-pixel */
"30 30 71 1 ",
"  c #262526",
". c #2A2626",
"X c #2C2728",
"o c #272828",
"O c #2A2A2A",
"+ c #332424",
"@ c #3A2525",
"# c #302628",
"$ c #332829",
"% c #343333",
"& c #383737",
"* c #3C3B3B",
"= c #4E1D1A",
"- c #541D1E",
"; c #5A1D1D",
": c #661A1A",
"> c #6B1B1B",
", c #4D201F",
"< c #5A201F",
"1 c #4C1F22",
"2 c #5A1E21",
"3 c #452323",
"4 c #4C2423",
"5 c #3F403F",
"6 c #434242",
"7 c #4B4B4B",
"8 c #555555",
"9 c #5C5C5D",
"0 c #9C1514",
"q c #A20F0D",
"w c #AE0D0D",
"e c #B40D0D",
"r c #BB0C0D",
"t c #B10F11",
"y c #CC0806",
"u c #C30B0C",
"i c #CC0909",
"p c #D40606",
"a c #DD0606",
"s c #DE0807",
"d c #D50708",
"f c #DE0709",
"g c #D50909",
"h c #DC0909",
"j c #E40505",
"k c #EC0404",
"l c #E20807",
"z c #EF0807",
"x c #E20709",
"c c #E10809",
"v c #F30404",
"b c #FC0202",
"n c #F40509",
"m c #AEACAD",
"M c #B6B4B5",
"N c #B8B7B8",
"B c #C5C4C5",
"V c #C8C7C8",
"C c #CECCCD",
"Z c #D0CECF",
"A c #D0CFD0",
"S c #D6D4D5",
"D c #D8D6D7",
"F c #DFDDDE",
"G c #E0DEDF",
"H c #E2E1E1",
"J c #E9E7E8",
"K c #EAE8E9",
"L c #F4F2F3",
"P c #FEFCFD",
"I c None",
/* pixels */
"IIIIIIIIIIIIIIIIIIIIIIIIIIIIII",
"IIIIIIIIIIIOOOOOO.OIIIIIIIIIII",
"IIIIIIIIIII::>>:>::IIIIIIIIIII",
"IIIIIIIOOO$lkvbkbjvvv3OIIIIIII",
"IIIIIII-2<;pahlajhfsf:;IIIIIII",
"IIIIIOOkvvvzkvvkbjvvvzv+OIIIII",
"IIIII;<ygggggghpliapagh;;IIIII",
"IIIO$nzvvvvvvvvkbjvvvzvkb@OIII",
"IIIo.xsaalafallajgxajhxpj+OIII",
"IIIO#nzvvvzvkvvkbknvvkvkb@OIII",
"III4=hgppddapteetihdadhys-1III",
"IO@bkvzkvkvkjOO.Opvvvknjbjb4OI",
"I +jacfaalatq99890wdlhxpjhj3oI",
"IO@bkvnvvvj@OPPJP*$jvvvkbjb4OI",
"I +ururrrue+ JJSJ%oeurueuei@.I",
"IO.OoOOoOOOO PPJP*oOooO.OOO.OI",
"I  5*55***6**BBMB6***56&5*6  I",
"IO*PJPPKLLLLKOOOOSLLLLPFPKP7OI",
"I %BMJJSFGGFS7767CFFFFJCKNB6 I",
"IIIOoPPJLLLLJPPJPKLLLLPFP*OIII",
"IIIO LLGKKKJFLLGLGKKKJLSL%OIII",
"IIIO LLGKKKKFLLGLGKJKKLSL*OIII",
"IIIo BBSGGGFSJJSJSFGGFJmB% III",
"IIIIIOOKLLLLJPPKPJLLLLP OIIIII",
"IIIII.oBCCZFSJJSJSFZCZD .IIIII",
"IIIIIIIoOO%HJPPKPJK*OOOIIIIIII",
"IIIIIII   OBCFFCFCC*OOOIIIIIII",
"IIIIIIIIIIIO OOOO.OIIIIIIIIIII",
"IIIIIIIIIIIO OO O oIIIIIIIIIII",
"IIIIIIIIIIIIIIIIIIIIIIIIIIIIII"
};
