/* XPM */
static char *_0845ff14a8445a8b7edb1475a10e997neIHsORCCog9451t[] = {
/* columns rows colors chars-per-pixel */
"30 30 135 2 ",
"   c None",
".  c #EC190F",
"X  c #F62807",
"o  c #F42508",
"O  c #F42B0D",
"+  c #F73505",
"@  c #F93306",
"#  c #F63907",
"$  c #F53509",
"%  c #F13C0B",
"&  c #F12D10",
"*  c #ED341C",
"=  c #EE3B18",
"-  c #F63A11",
";  c #F2321C",
":  c #F12D22",
">  c #EF3122",
",  c #F4440C",
"<  c #F54A0B",
"1  c #F8480C",
"2  c #F75407",
"3  c #F55805",
"4  c #FA5A07",
"5  c #F7540A",
"6  c #F9560C",
"7  c #F65E0A",
"8  c #FA5A0C",
"9  c #F54517",
"0  c #F3471C",
"q  c #F4491A",
"w  c #F55313",
"e  c #F95410",
"r  c #F35E12",
"t  c #F3561D",
"y  c #FB6507",
"u  c #FA6C07",
"i  c #F66309",
"p  c #FA640A",
"a  c #F76A0C",
"s  c #F96D08",
"d  c #FB7406",
"f  c #FA7B06",
"g  c #FA7309",
"h  c #F97B09",
"j  c #F4621D",
"k  c #EC442D",
"l  c #EF4C2B",
"z  c #F14B23",
"x  c #EE5926",
"c  c #F25320",
"v  c #EB4730",
"b  c #EC4F35",
"n  c #ED4C3E",
"m  c #F15732",
"M  c #F15833",
"N  c #E54A47",
"B  c #F04D45",
"V  c #F05E47",
"C  c #F15048",
"Z  c #E8595A",
"A  c #EE6B4D",
"S  c #F06244",
"D  c #EF6758",
"F  c #F16451",
"G  c #ED6765",
"H  c #E66F65",
"J  c #EF6867",
"K  c #EE6D68",
"L  c #EB7463",
"P  c #EB7469",
"I  c #F17362",
"U  c #F07C6F",
"Y  c #EF7C7E",
"T  c #F37974",
"R  c #F1787B",
"E  c #FB8305",
"W  c #FA8D05",
"Q  c #F7870A",
"!  c #FA8509",
"~  c #FA8B0A",
"^  c #FC9404",
"/  c #FB9B05",
"(  c #FB9508",
")  c #F89F0A",
"_  c #FBA306",
"`  c #FBAC06",
"'  c #FBA40B",
"]  c #FBAD0A",
"[  c #FCB505",
"{  c #FCBC06",
"}  c #F7B10F",
"|  c #FBB409",
" . c #FBBD0B",
".. c #FCC405",
"X. c #FCCA05",
"o. c #FCC309",
"O. c #FBC908",
"+. c #FBD205",
"@. c #FCDB05",
"#. c #FCD40A",
"$. c #FDDF0A",
"%. c #FBE306",
"&. c #FCEC06",
"*. c #FBE40B",
"=. c #FCEF0A",
"-. c #FCF405",
";. c #FEFD03",
":. c #FDF209",
">. c #F38C86",
",. c #EB9085",
"<. c #F2928C",
"1. c #F29996",
"2. c #F0A49C",
"3. c #EFA3A5",
"4. c #F0A7A7",
"5. c #F3ADA1",
"6. c #F3A8A5",
"7. c #F3ABA8",
"8. c #F2ABAA",
"9. c #F4ABAB",
"0. c #F1ACAA",
"q. c #F6B0AE",
"w. c #F5B4B1",
"e. c #F4BBB6",
"r. c #F4C8C6",
"t. c #F5CFCF",
"y. c #F4D0D1",
"u. c #F4D1D1",
"i. c #F5D1D1",
"p. c #FAD2D2",
"a. c #F7DDDB",
"s. c #F7E4E4",
"d. c #FBE1E0",
"f. c #F9EDEC",
"g. c white",
/* pixels */
"g.                                                          ",
"                                                            ",
"                                                            ",
"                                q.Z p.                      ",
"                              b > Y d.                      ",
"                              e *                           ",
"                            7 9                             ",
"                        K 1 y ;                             ",
"                      1.q g d ;                             ",
"                    i.V p W d ;           3.f.              ",
"                    0.+ E / d ;         <.A 2.              ",
"            4.      0.$ E / d ;         n j c L             ",
"          2.R       0.@ E / f - 5.      t ! E r U a.        ",
"        4.. F r.    0.@ E [ ' a *       g [ ` / < N         ",
"      s.D 1 9 T       # E [ { ~ w     i ^ { { _ u z         ",
"      i.O g h w H     U < W {  .' 7 X 4 W { ..{ W 2 G       ",
"      t.O g ( d x ,.    0 f | ..{ Q 6 % a / { ..W 2 J       ",
"      t.o d ] ] Q t P 9.B 5 ^ ..X.o.) i # i ` { ~ 6         ",
"      i.& g ` ..o.) i $ $ , d ] X.-.*.} ! E ]  .~ 6         ",
"        I < ^ [ +.+.' ! E 7 s | X.-.-.*. .| o.] y l         ",
"        e.k u _ +.:.*.O...` [ +.&.;.;.;.&.#.| ( q K         ",
"          ,.1 ! | *.:.&.@.X.X.&.;.;.;.;.:.#.) g n           ",
"            l a _ ..@.-.-.-.-.;.;.;.;.:.#. .! w             ",
"            >.- f ` X.+.%.-.;.;.;.%.%.X...' 8 >             ",
"              I w Q ` [ ..+.@.@.@.X.o.` _ h M               ",
"                2.M 2 d ^ ^ ^ ( ( ^ W 3 e S                 ",
"                      c 4 4 4 7 4 4 8 v C w.                ",
"                                                            ",
"                                                            ",
"                                                            "
};
