/* XPM */
static char *_6cb6aae38394171c7d1a3e0aa6a118bwRIrqk7xlKDnpsiP[] = {
/* columns rows colors chars-per-pixel */
"30 30 190 2 ",
"   c None",
".  c #F30E0D",
"X  c #F01607",
"o  c #F51F0A",
"O  c #F6140D",
"+  c #EE1F12",
"@  c #EC1D1A",
"#  c #F41111",
"$  c #F21B15",
"%  c #ED280D",
"&  c #F42906",
"*  c #F4220A",
"=  c #F42506",
"-  c #F43406",
";  c #F83607",
":  c #F73806",
">  c #F4340B",
",  c #F63A0B",
"<  c #F83D0B",
"1  c #EE2611",
"2  c #F52512",
"3  c #F3271F",
"4  c #EE3517",
"5  c #EE3914",
"6  c #F03715",
"7  c #F23911",
"8  c #EE2926",
"9  c #EE3A26",
"0  c #EE3C2A",
"q  c #E93624",
"w  c #F33D21",
"e  c #F03729",
"r  c #F13A2A",
"t  c #E73C3E",
"y  c #E83C3C",
"u  c #F13732",
"i  c #F33B34",
"p  c #F13438",
"a  c #F43B39",
"s  c #F94F06",
"d  c #F6450A",
"f  c #F84709",
"g  c #F7490A",
"h  c #F84A09",
"j  c #F44D05",
"k  c #FA5505",
"l  c #F75907",
"z  c #FB5C06",
"x  c #F6560C",
"c  c #F9540B",
"v  c #F95A09",
"b  c #EF4015",
"n  c #EE431C",
"m  c #F54B14",
"M  c #F3431B",
"N  c #F34B1B",
"B  c #F65311",
"V  c #F85317",
"C  c #F76706",
"Z  c #FC6404",
"A  c #FB6B05",
"S  c #F6650C",
"D  c #FC6309",
"F  c #F96A0B",
"G  c #F57606",
"H  c #FB7205",
"J  c #F37D07",
"K  c #FA7B05",
"L  c #F47709",
"P  c #FB7D09",
"I  c #F9740A",
"U  c #F36114",
"Y  c #F47019",
"T  c #F27A13",
"R  c #EF4925",
"E  c #EE442C",
"W  c #EB4729",
"Q  c #F34C24",
"!  c #F5402A",
"~  c #F15421",
"^  c #E74030",
"/  c #EC4430",
"(  c #EE4C32",
")  c #EC4538",
"_  c #E8483C",
"`  c #E5443B",
"'  c #F24F3A",
"]  c #F34236",
"[  c #F35033",
"{  c #F46721",
"}  c #F36C28",
"|  c #F37623",
" . c #F03A40",
".. c #EF4746",
"X. c #EF4947",
"o. c #EA4E4D",
"O. c #F14641",
"+. c #EF5340",
"@. c #E85841",
"#. c #EB504F",
"$. c #F2544C",
"%. c #EB5D52",
"&. c #EF5558",
"*. c #EF5E5C",
"=. c #F15352",
"-. c #EE6047",
";. c #EC6A5F",
":. c #ED625D",
">. c #F06F5E",
",. c #ED6B63",
"<. c #EC6368",
"1. c #EE6B6B",
"2. c #EA6364",
"3. c #EC7264",
"4. c #EC746D",
"5. c #F17266",
"6. c #ED7673",
"7. c #ED7E73",
"8. c #EF7E7E",
"9. c #F37E78",
"0. c #F37672",
"q. c #F78207",
"w. c #FB8B05",
"e. c #F88309",
"r. c #FC9305",
"t. c #FB9C07",
"y. c #FC9A08",
"u. c #FB960A",
"i. c #F7A707",
"p. c #FBA506",
"a. c #F9AC05",
"s. c #F9A609",
"d. c #F9AD0B",
"f. c #FAB206",
"g. c #F7BF05",
"h. c #F9BC04",
"j. c #F9BC10",
"k. c #F28922",
"l. c #FCC305",
"z. c #FACC04",
"x. c #FAC30C",
"c. c #FAC90A",
"v. c #FAD206",
"b. c #FADA06",
"n. c #F9D209",
"m. c #FBDA0A",
"M. c #FAE007",
"N. c #FBED07",
"B. c #FBEC09",
"V. c #FBE60A",
"C. c #FCF305",
"Z. c #FEFD03",
"A. c #FDF40A",
"S. c #FDF90B",
"D. c #ED877E",
"F. c #F1877B",
"G. c #F07E81",
"H. c #EE8582",
"J. c #EE8F86",
"K. c #F48081",
"L. c #F48A84",
"P. c #F38D8D",
"I. c #EE918A",
"U. c #F5908F",
"Y. c #EC9499",
"T. c #EF9998",
"R. c #F49490",
"E. c #F2A39B",
"W. c #F4ADAA",
"Q. c #F2A9A4",
"!. c #F4B1AE",
"~. c #F6ADB1",
"^. c #F4B4B4",
"/. c #F5BAB7",
"(. c #F4B6B9",
"). c #F4C2BD",
"_. c #EFC5C0",
"`. c #F4C2C2",
"'. c #FACAC7",
"]. c #F6CCCA",
"[. c #F9CFCE",
"{. c #F8C5C2",
"}. c #F3D6D4",
"|. c #F9D7D7",
" X c #F6DCD7",
".X c #F9DAD9",
"XX c #F9DDDE",
"oX c #F9DDE0",
"OX c #FAE5E3",
"+X c #F9EBEC",
/* pixels */
"                                                            ",
"                            o.{.                            ",
"                          oX .                              ",
"                          /.) Q.                            ",
"                <.      oX$.V +.].      6.                  ",
"              .X../.    .X] c r {.    }.=.'.                ",
"              .Xa :.    ].] k w /.  }.6.u '.                ",
"              .Xa M 3.].,.N z B %.`.,.Q e '.                ",
"        u %.    /.w m ( o k Z z = / N - E.    6.@           ",
"        u M ;.    0 c c = k Z z & h c %     =.N 1           ",
"        D.M W 7.  D.m v h Z Z Z h k M 5.  I.M n 3.          ",
"          I.> M 3.^.e s Z Z Z Z Z v q ^.H.Q ; 7.            ",
"6.G.      [.1 B m O.* s K A Z Z K v 2 O.~ c X !.    OXU.1.  ",
"H.8 G.Y.    ;.N k ; < z w.H Z H w.D < > c m ,.    Y.8.p *.  ",
"  <.@ 6 D.  }.D.N D A K w.w.A K r.e.F D N 4.  W.P.4 $ &.}.  ",
"    >.d , ! R.K.3 < A w.p.r.A r.s.u.F h 2 0.T.[ > M 5.].    ",
"      L.N B ; , ; f q.a.l.f.w.d.x.a.P j - ; ; x d J.        ",
"        F.N z Z Z A t.h.b.l.s.x.m.l.t.H D D D m 5.          ",
"          @.c v Z H p.h.N.v.d.c.B.z.p.K Z v x ( /.          ",
"        ~.U.. & A y.l.z.C.S.M.C.S.n.l.p.H & . 8.(.(.        ",
"1.# O 2 2 * ; F y.p.z.v.S.Z.Z.Z.S.b.c.f.p.I W 9 E e $ . o.  ",
"  y e V v S I t.l.z.b.A.Z.Z.Z.Z.Z.C.b.v.l.i.T | { B e y _.  ",
"      i ! B e.d.h.V.C.S.Z.Z.Z.Z.Z.Z.C.A.l.d.k.} ( $.).OX    ",
"        /._ n U L j.v.N.S.Z.Z.Z.S.N.n.x.e.Y W ` W.XX        ",
"            ).,.' B A p.h.v.b.n.g.i.C x -.4. X+X            ",
"                /./ 5 S G J J J G C 5 q Q.                  ",
"                        o o o * * 9 E.).                    ",
"                                                            ",
"                                                            ",
"                                                            "
};
