/* XPM */
static char *_a7a303b572c4614931a729b6913d3dcEzRRgv2TQ3GGokTK[] = {
/* columns rows colors chars-per-pixel */
"30 30 166 2 ",
"   c None",
".  c #ED1613",
"X  c #F71D10",
"o  c #F21E1D",
"O  c #F42C07",
"+  c #F33006",
"@  c #F1370B",
"#  c #F43D0B",
"$  c #F33411",
"%  c #F33F11",
"&  c #F63E1D",
"*  c #F32725",
"=  c #ED3B24",
"-  c #F53320",
";  c #EF3F35",
":  c #F84707",
">  c #F7420A",
",  c #F24D0E",
"<  c #F6520A",
"1  c #F75A0B",
"2  c #F85A09",
"3  c #EE4211",
"4  c #EF4B13",
"5  c #EF441E",
"6  c #F34B1B",
"7  c #F34A15",
"8  c #F75D10",
"9  c #F25A1B",
"0  c #F55415",
"q  c #F56E07",
"w  c #F86A07",
"e  c #F7630B",
"r  c #F96308",
"t  c #F66D0A",
"y  c #F96B09",
"u  c #F67506",
"i  c #F87406",
"p  c #FC7906",
"a  c #F6770B",
"s  c #FA7509",
"d  c #FB7C09",
"f  c #F46211",
"g  c #F96115",
"h  c #F67C10",
"j  c #F57E1C",
"k  c #EF4C26",
"l  c #ED472A",
"z  c #F14C22",
"x  c #F1452D",
"c  c #ED512C",
"v  c #F1562C",
"b  c #F25426",
"n  c #ED4F3C",
"m  c #EE5D30",
"M  c #EC513E",
"N  c #F15534",
"B  c #F1553B",
"V  c #F9523D",
"C  c #F26021",
"Z  c #F16C3C",
"A  c #E54E4A",
"S  c #EF5742",
"D  c #ED5846",
"F  c #EF5E4B",
"G  c #F55C57",
"H  c #F55C58",
"J  c #EE6346",
"K  c #EC6449",
"L  c #EE6B4A",
"P  c #ED6550",
"I  c #EF655F",
"U  c #F56D5D",
"Y  c #EF705C",
"T  c #EC6965",
"R  c #EF7462",
"E  c #EA796C",
"W  c #F07866",
"Q  c #F2736B",
"!  c #E97574",
"~  c #EB7D71",
"^  c #F07F71",
"/  c #FA8406",
"(  c #FA8B07",
")  c #F6850C",
"_  c #F98308",
"`  c #FB8D09",
"'  c #FB9306",
"]  c #F6960A",
"[  c #F99409",
"{  c #FB9A0A",
"}  c #FA9012",
"|  c #F99913",
" . c #FBA306",
".. c #FBAD06",
"X. c #FCA60E",
"o. c #FAAB08",
"O. c #FAB606",
"+. c #FBBD06",
"@. c #FBB308",
"#. c #F9BC0B",
"$. c #FAA912",
"%. c #F6AB19",
"&. c #F78424",
"*. c #F39424",
"=. c #F6BD21",
"-. c #FCC405",
";. c #FBCB06",
":. c #FBC409",
">. c #FBCA09",
",. c #FAD306",
"<. c #FBDB05",
"1. c #FAD30A",
"2. c #FCE305",
"3. c #FCEC06",
"4. c #FBE40C",
"5. c #FCEC0D",
"6. c #FCF406",
"7. c #FDFC05",
"8. c #FCF40A",
"9. c #FDFB0B",
"0. c #FBEB11",
"q. c #FBED1A",
"w. c #FCF613",
"e. c #FDFD16",
"r. c #FCFC27",
"t. c #FCFC35",
"y. c #FCF93F",
"u. c #ED806F",
"i. c #FBFC4E",
"p. c #FAFB5B",
"a. c #FCFC6A",
"s. c #FCFC7B",
"d. c #F28F87",
"f. c #ED918B",
"g. c #EF9B8D",
"h. c #F2978E",
"j. c #ED9996",
"k. c #F29591",
"l. c #F39B97",
"z. c #F49D9F",
"x. c #EDA39E",
"c. c #F2A39A",
"v. c #F3A89D",
"b. c #F3A5A3",
"n. c #F0AEA6",
"m. c #F0ADAA",
"M. c #F3B3B0",
"N. c #F2BAB5",
"B. c #F3BBB9",
"V. c #FEFC83",
"C. c #FDFD93",
"Z. c #FDFB9D",
"A. c #FEFDAA",
"S. c #FEFDBB",
"D. c #F4C4C2",
"F. c #FBC7C8",
"G. c #F6CCCB",
"H. c #F9CBCA",
"J. c #F6D2CD",
"K. c #F6D4D2",
"L. c #F5DEDB",
"P. c #F8DCDC",
"I. c #FFFEC5",
"U. c #F6E3E3",
"Y. c #F8E2E1",
"T. c #FCFAF8",
/* pixels */
"                                                            ",
"                                                            ",
"                                                            ",
"                                                            ",
"                                        l.E L.              ",
"                                      u.< e K D.            ",
"                                    Q 4 ] { 3 k.            ",
"            n.L Z g.    ! b.      G.X t #.) z b.            ",
"          m.5 j *.v k.  A o         ; 2 _ 6 h.              ",
"        F.x h =.%.6 d.  f.* - h.      I N b.                ",
"        H.D &.| f Y J.    G : 0 R                           ",
"          D.x 7 Q         G < _ f S     M.! Y.              ",
"            N.f.U.      D.B y { ` 1     b.. k.              ",
"            K.x.        A < [ @.' 2   K.F # S B.            ",
"            M.I       l.c s o. .i z b.K.# s @ k.T.          ",
"            = 7 T K.u.b } #.;. .y l c.l d { s k z.          ",
"          c.> < n W 9 [ +.,.5.>. .q + u @.O.[ , Q U.        ",
"        D.x y ` t e ] +.<.6.8.4.:.../ @.;.-.o.d @ j.        ",
"        U 8 ` o.@...;.2.9.r.a.y.0.,.-.,.3.;.-. .y B         ",
"        V r X.:.-.;.<.9.e.s.S.C.t.5.,.8.9.<.;...d &         ",
"        V r $.:.,.3.7.9.V.I.I.I.A.p.9.7.7.2.;...d &         ",
"        c.k _ ..1.3.6.7.t.Z.I.I.A.i.7.7.3.,.O.( < ~         ",
"          c.b a o.>.,.3.8.y.C.C.i.w.3.<.;.O.( 9 u.L.        ",
"            N.J e [ o.+.>.4.q.q.4.,.-.@.' i m c.            ",
"              G.P > e _ $.#.@.@.O.../ d # N M.              ",
"                P.l.  $ g d d d p w O = z.G.                ",
"                                                            ",
"                                                            ",
"                                                            ",
"                                                            "
};
