/* XPM */
static char *_81515ecddc241f9cb7820cfde390abdmKAmEv42So1Ze5OV[] = {
/* columns rows colors chars-per-pixel */
"30 30 131 2 ",
"   c None",
".  c black",
"X  c #010000",
"o  c #000001",
"O  c #010001",
"+  c #010101",
"@  c #020101",
"#  c #010002",
"$  c #020202",
"%  c gray1",
"&  c #060402",
"*  c #070502",
"=  c #070503",
"-  c #040404",
";  c gray2",
":  c #060606",
">  c #070707",
",  c #090601",
"<  c #090803",
"1  c gray3",
"2  c #090909",
"3  c gray4",
"4  c #0B0B0B",
"5  c #0E0E0E",
"6  c #120E03",
"7  c #161103",
"8  c #1B1402",
"9  c #1A1505",
"0  c #1F1904",
"q  c #1B170C",
"w  c #101010",
"e  c #111111",
"r  c gray8",
"t  c #191919",
"y  c #1A1A1B",
"u  c #201906",
"i  c #281F03",
"p  c #291F04",
"a  c #2E2409",
"s  c #302503",
"d  c #322704",
"f  c #3C2F06",
"g  c #222222",
"h  c gray16",
"j  c #2D2D2D",
"k  c #343434",
"l  c gray21",
"z  c #3C3C3C",
"x  c #453506",
"c  c #433308",
"v  c #564206",
"b  c #594409",
"n  c #5D4709",
"m  c #59460F",
"M  c #795C09",
"N  c #414141",
"B  c #595650",
"V  c #585858",
"C  c #615F57",
"Z  c gray38",
"A  c #626261",
"S  c #80630A",
"D  c #85660A",
"F  c #876809",
"G  c #886808",
"H  c #967107",
"J  c #AA820D",
"K  c #B88D09",
"L  c #BA8E09",
"P  c #BD900A",
"I  c #C1930A",
"U  c #C1930B",
"Y  c #C2950F",
"T  c #CF9E0A",
"R  c #D1A009",
"E  c #D2A00A",
"W  c #DAA60A",
"Q  c #E0AB0A",
"!  c #E5AE08",
"~  c #F1B809",
"^  c #F3B908",
"/  c #D0AB38",
"(  c #FEC107",
")  c #FCC008",
"_  c #FDC008",
"`  c #FDC108",
"'  c #FEC108",
"]  c #FEC109",
"[  c #FDC10A",
"{  c #FEC10A",
"}  c #FEC30F",
"|  c #FCC210",
" . c #FEC412",
".. c #FEC61B",
"X. c #868070",
"o. c #EEC74E",
"O. c #F7CB42",
"+. c #FECF41",
"@. c #FDD249",
"#. c #E5C257",
"$. c #FDD350",
"%. c #FDD351",
"&. c #FDD65C",
"*. c #FED75F",
"=. c #DCC478",
"-. c #FDD967",
";. c #FDD968",
":. c #959595",
">. c #9C9B9C",
",. c #BCB08A",
"<. c #A9A9A9",
"1. c #BBBBBB",
"2. c #FCE084",
"3. c #FBE495",
"4. c #D8CFB3",
"5. c #FDE6A0",
"6. c #FEE7A0",
"7. c #FDEAA9",
"8. c #F5E7B7",
"9. c #D2D2D1",
"0. c #DFDFDF",
"q. c #FDF0C5",
"w. c #FFF5D8",
"e. c gray88",
"r. c #E2E2E2",
"t. c #E6E6E6",
"y. c #FEF7E1",
"u. c #F4F4F4",
"i. c #FFFFFC",
"p. c #FFFFFE",
"a. c white",
/* pixels */
"                                                            ",
"                                                            ",
"                    ; . . . . . . . . .                     ",
"              w w w . z r.r.r.r.1.; . . 5 w w j             ",
"            w . t h h C w.w.w.w.4.a a i , . . w             ",
"          ; . . :.u.u.8. . . . .| ^ ~ ~ s . . 4             ",
"          . g V ,.7.7.3.&.&.&.&.o.J W ] M c . >             ",
"          . Z a.-.( ( @.a.a.a.a.9.; H ( ( I . . .           ",
"      4 4 . Z a.;.( ( @.a.2.+.+./ , H ( ( P . . .           ",
"      . . . Z a.-.( ( @.a.&.( ] E & H ( ( I $ $ .           ",
"      . r 0.6.] ] ( ( @.a.*.( ( R , H ( ( ' ' F . .         ",
"      . r r.6.( ( ( ( @.a.*.( ( R & H ( ( ( ' F . .         ",
"      . r r.6.( ( ( ( @.a.-.( ( E & H ( ( ( ( G . .         ",
"      . w r.6.( ( ( ( @.a.&.( ( E & H ( ( ( ( G . .         ",
"      . r r.6.( ( ( ( @.a.&.( ( E & H ( ( ( ( G . .         ",
"      . w r.6.( ( ( ( @.a.&.( ( E , H ( ( ( ] G . .         ",
"      . r 0.3.{ ( ( ( @.a.*.( ( R , H ( ( ( ( G . .         ",
"      . r r.6.] ( ( ( @.a.*.( ( R & H ( ( ( ( G . .         ",
"      . r 0.6.] ( ( ( @.a.-.( ( R , H ( ( ( ( G . .         ",
"      . r r.6.] ( ( ( @.a.&.( ( R & H ( ( ( ( G . .         ",
"      . ; l X.q.%.( ( @.a.&.( ( E & H ( ( T f u .           ",
"      . . . Z a.;.] ( O.t.#.! ! P & H ( ( I . . .           ",
"          ; Z a.;.] ] Y t q 8 8 7 . H ( ( I . . .           ",
"          ; N <.=.%.{ E v v v v v v K ( L S . 4 5           ",
"          4 . . >.y...] ( ] ( ] ] ( ( ] d . . 4             ",
"            ; . l B m D ( ( ( ( Q n b b 6 . . 4             ",
"              . . . . x ( ( ( ( E < . . . . . 4             ",
"                    . < 0 0 0 0 9 . . .                     ",
"                    4 . ; ; ; ; ; - ; ;                     ",
"                                                            "
};
