/* XPM */
static char *result[] = {
/* columns rows colors chars-per-pixel */
"30 30 205 2 ",
"   c #3D230D",
".  c #42250C",
"X  c #4B2509",
"o  c #452A0E",
"O  c #4C2B0C",
"+  c #542D0D",
"@  c #5B2B0B",
"#  c #57300F",
"$  c #5C330E",
"%  c #57390E",
"&  c #4A2B10",
"*  c #452910",
"=  c #572F10",
"-  c #4D3516",
";  c #46381C",
":  c #543111",
">  c #5D3712",
",  c #5D3A14",
"<  c #54341D",
"1  c #5B361B",
"2  c #573C1C",
"3  c #5C3D1D",
"4  c #523F12",
"5  c #63360E",
"6  c #6A360E",
"7  c #6C3C0E",
"8  c #653A07",
"9  c #743F0C",
"0  c #633612",
"q  c #653B13",
"w  c #6C3D13",
"e  c #623E1C",
"r  c #713A14",
"t  c #4F3523",
"y  c #4C342B",
"u  c #533525",
"i  c #553A21",
"p  c #5C3C24",
"a  c #553C2A",
"s  c #5A3A26",
"d  c #573B33",
"f  c #613D24",
"g  c #643C2C",
"h  c #723F20",
"j  c #5B411B",
"k  c #584418",
"l  c #6B400D",
"z  c #78410F",
"x  c #77450F",
"c  c #6B4112",
"v  c #62431C",
"b  c #69441E",
"n  c #684B1C",
"m  c #744415",
"M  c #7A4413",
"N  c #7C4B14",
"B  c #764419",
"V  c #7B461A",
"C  c #724C1D",
"Z  c #7C4B1B",
"A  c #744815",
"S  c #69531A",
"D  c #7C541D",
"F  c #735B1C",
"G  c #78581F",
"H  c #4C462C",
"J  c #4E4622",
"K  c #5E4324",
"L  c #5D432D",
"P  c #574627",
"I  c #495026",
"U  c #5E4634",
"Y  c #584832",
"T  c #544632",
"R  c #5C5834",
"E  c #644424",
"W  c #6A4425",
"Q  c #6C4B26",
"!  c #64432B",
"~  c #6C442C",
"^  c #63492C",
"/  c #6B4A2C",
"(  c #654925",
")  c #734C25",
"_  c #794D26",
"`  c #744C2A",
"'  c #78492B",
"]  c #6D5323",
"[  c #66522D",
"{  c #6C512D",
"}  c #645B2F",
"|  c #6A5528",
" . c #735224",
".. c #7A5E25",
"X. c #75512D",
"o. c #79542E",
"O. c #7C5C2A",
"+. c #624532",
"@. c #664933",
"#. c #6B4B34",
"$. c #6F4E39",
"%. c #734F39",
"&. c #6A5433",
"*. c #675A34",
"=. c #6C543E",
"-. c #685736",
";. c #745334",
":. c #745539",
">. c #785639",
",. c #765A38",
"<. c #7C6523",
"1. c #78622D",
"2. c #78682E",
"3. c #68613D",
"4. c #746334",
"5. c #7C6335",
"6. c #796A38",
"7. c #7F703E",
"8. c #5B5B45",
"9. c #6B6240",
"0. c #80480D",
"q. c #96550F",
"w. c #824715",
"e. c #844C14",
"r. c #8B4E16",
"t. c #854D1B",
"y. c #8A4D19",
"u. c #8D5116",
"i. c #84521C",
"p. c #8A511A",
"a. c #825A1B",
"s. c #835817",
"d. c #935415",
"f. c #9A5617",
"g. c #9B5B17",
"h. c #93541C",
"j. c #99561B",
"k. c #925C1E",
"l. c #9C5A1C",
"z. c #A75E17",
"x. c #9C631F",
"c. c #97701A",
"v. c #A6621A",
"b. c #AB621E",
"n. c #A96618",
"m. c #B26615",
"M. c #B2661C",
"N. c #BD6D1E",
"B. c #B96A1A",
"V. c #BD711A",
"C. c #855C28",
"Z. c #885426",
"A. c #925324",
"S. c #805F3F",
"D. c #875D34",
"F. c #A85F29",
"G. c #836323",
"H. c #8E6A2A",
"J. c #866A2A",
"K. c #956124",
"L. c #94672B",
"P. c #986529",
"I. c #8C7028",
"U. c #9F7C29",
"Y. c #856C37",
"T. c #976532",
"R. c #837434",
"E. c #887533",
"W. c #84733B",
"Q. c #8E773B",
"!. c #8F793B",
"~. c #967636",
"^. c #A36521",
"/. c #AB6A23",
"(. c #AA6B29",
"). c #B56C22",
"_. c #B66820",
"`. c #AA722C",
"'. c #A27F2E",
"]. c #B67222",
"[. c #BE7121",
"{. c #B27A2F",
"}. c #C26F1F",
"|. c #C5751D",
" X c #C17A28",
".X c #89735E",
"XX c #B88724",
"oX c #A58C3A",
"OX c #B49933",
"+X c #BFB638",
"@X c #C59231",
"#X c #D2B53A",
"$X c #DFC239",
"%X c #988242",
"&X c #968955",
"*X c #AB9541",
"=X c #A29252",
"-X c #B8A458",
";X c #C8B542",
":X c #DCBA42",
">X c #C5AA53",
",X c #C0B365",
"<X c #C4AF76",
"1X c #D5CB40",
"2X c None",
/* pixels */
"2X2X2X2X2X2X2X2X2X2X2X2Xb m [.^.3 ,.2X2X2X2X2X2X2X2X2X2X2X2X",
"2X2X2X2X2X2X2X2X2X2X~.`.t.0 Z c p.v.{.2X2X2X2X2X2X2X2X2X2X2X",
"2X2X2X2X2X2X2X2X4.e M m 5 q d.p.@ v.V.y.F 2X2X2X2X2X2X2X2X2X",
"2X2X2X2X2X2X2X Xj.w 5 w 6 e.8 z r.z.z.z.w.].{.2X2X2X2X2X2X2X",
"2X2X2X2X2Xi.p.N.h.0 e.e.# o . O X N u.z e.N.M.e 2X2X2X2X2X2X",
"2X2X2XQ.).m.B.b.r _ u.e.l   O O q e.0.d.m.B.B.r.z.`.2X2X2X2X",
"2XJ & m 9 9 7 9 l # 8 8 @ # + % O 5 5 6 9 m e.5 M M w & 2X2X",
"7.K.l.g.h.d.f.j.d.d.p.e.e.0.N x e.r.u.r.d.f.q.h.A.h.f.K.C.*.",
"2X:.` ) ) _ G.1X;XG.%.#.p 2 P #./ #.#.s I.;X#X../ ) Q } 2X2X",
"2X[ ) ) _ ) a.$X#XG >.) OX#XI.> ! %./ 2 H.:X#X_ C Q ] } 2X2X",
"2X9.` ) ' Q ) B b 3 :.U L k Y G '.c d t / o.X.@.#.~ ` &.2X2X",
"2X{ _ ) _ ' ) s p p $.$.@.T t % c.'.3 i :.p E 1 { u @.*.2X2X",
"2X| Q ;./ @.+.^ / E K #.U a ( G.a.q 3 j $.f :.! +.u a H 2X2X",
"2X[ ! +.{ [ d y u E  .n k k v % j n  . ./ L u u i s K H 2X2X",
"2X[ ! !  .Y.,.L K O.>XoX<.=X,XE.F oX>XQ.;.#.( o.` / X.*.2X2X",
"2X&.` / K K K a f ` <X-X<.7.2.2.<.oX~.) >./ C.|.N.E @.3.2X2X",
"2X&._ ) ` W / 2 3 Q ,...F W.4.6.F S 3 p &.L ] x.h.s U *.2X2X",
"2X{ o.` ' { Q e E W ) C ~.Q.E.R.!.n 3 ! ~ p ; y u s / *.2X2X",
"2X*.Q >.~ v W g #.( W ( ( k - - ( ( W W :.:.^ g ! #./ I 2X2X",
"2X=.W p r @X@Xw < 2 b b v v 2 K W S.Q e :.:.D.A.b L L Y 2X2X",
"2X&.L ! s.XXn.B 3 i j j , | R.k - 1 k - #.p Z.F.r u g 8.2X2X",
"2X-.W ! f u u s a K !.%X1.2.W.| S R.&X.X! ! i < i a E P 2X2X",
"4.D , p.b.N m p.t.0 V t.> 5 t.m # B i.0 B h.A.w y.z.M > O.R ",
"2X2XT.0 p.m w t.m c $ q , O : O > & q w = m m m w w.b P 2X2X",
"2X2X2X5./.h.e. Xh.0 V m & . . & . - > 0 t.).k.M (.P.2X2X2X2X",
"2X2X2X2X2X`.]./.9 Z j.w *   . . & + q B M.v.> J.2X2X2X2X2X2X",
"2X2X2X2X2X2X2X`.j.0 m.B.0 # m l X j./.r g.(.3.2X2X2X2X2X2X2X",
"2X2X2X2X2X2X2X2X2X`.[.|.M.M.j.x.M.}.N e 5.2X2X2X2X2X2X2X2X2X",
"2X2X2X2X2X2X2X2X2X2XH.v.M m l 0.6 /.L.2X2X2X2X2X2X2X2X2X2X2X",
"2X2X2X2X2X2X2X2X2X2X2X2XC.P.P.A.L.5.2X2X2X2X2X2X2X2X2X2X2X2X"
};
