/* XPM */
static char *f136ccd63f984211a943eeefe9839732qoWKs5eMfz0hZgx6[] = {
/* columns rows colors chars-per-pixel */
"29 30 231 2 ",
"   c None",
".  c #1D1119",
"X  c #2C141C",
"o  c #291A1E",
"O  c #36191B",
"+  c #300E1E",
"@  c #2B1324",
"#  c #2C142B",
"$  c #2C1929",
"%  c #321D24",
"&  c #3B1D25",
"*  c #351D2B",
"=  c #36192A",
"-  c #3C1F35",
";  c #381D35",
":  c #33232C",
">  c #3C212B",
",  c #362125",
"<  c #342333",
"1  c #382434",
"2  c #2E2322",
"3  c #49180B",
"4  c #461C18",
"5  c #5F301F",
"6  c #421C2A",
"7  c #451A24",
"8  c #471D33",
"9  c #571F2C",
"0  c #41212A",
"q  c #4C2E2A",
"w  c #452829",
"e  c #572828",
"r  c #54372B",
"t  c #4A2737",
"y  c #572B36",
"u  c #4A3238",
"i  c #5C323C",
"p  c #593238",
"a  c #653527",
"s  c #622D3B",
"d  c #682F3A",
"f  c #72273A",
"g  c #61313C",
"h  c #683836",
"j  c #753B39",
"k  c #574C31",
"l  c #5C5A38",
"z  c #524632",
"x  c #64482D",
"c  c #684735",
"v  c #76473B",
"b  c #605A37",
"n  c #3A2B44",
"m  c #5E2A40",
"M  c #5A3944",
"N  c #6C3942",
"B  c #7E3741",
"V  c #5E5159",
"C  c #7B4647",
"Z  c #76514F",
"A  c #746345",
"S  c #6A665B",
"D  c #6E6C6D",
"F  c #8C3530",
"G  c #874A3C",
"H  c #96533D",
"J  c #8D5D3F",
"K  c #A3543C",
"L  c #84633D",
"P  c #8D3247",
"I  c #A53C43",
"U  c #874446",
"Y  c #93444D",
"T  c #835944",
"R  c #9D5747",
"E  c #984552",
"W  c #955954",
"Q  c #814B52",
"!  c #A95B4B",
"~  c #B65D4B",
"^  c #A85759",
"/  c #B65C53",
"(  c #856649",
")  c #9A6148",
"_  c #876655",
"`  c #966B57",
"'  c #9B7B53",
"]  c #A6644F",
"[  c #BD634C",
"{  c #B2694B",
"}  c #B76646",
"|  c #A7754D",
" . c #AE6852",
".. c #B86353",
"X. c #A77953",
"o. c #B57454",
"O. c #B77859",
"+. c #834A62",
"@. c #967B64",
"#. c #887673",
"$. c #B97563",
"%. c #B17465",
"&. c #D67C4B",
"*. c #DB7B52",
"=. c #D67B57",
"-. c #C66E50",
";. c #E5775A",
":. c #DE7A60",
">. c #9E8B57",
",. c #A98458",
"<. c #BB925D",
"1. c #A58045",
"2. c #908363",
"3. c #BC8B69",
"4. c #B98865",
"5. c #AC9269",
"6. c #B99467",
"7. c #BD8D74",
"8. c #B38A6F",
"9. c #B4AE6C",
"0. c #B4AB67",
"q. c #B5AD73",
"w. c #B5A57C",
"e. c #BDB571",
"r. c #AFAC78",
"t. c #D28746",
"y. c #C6855E",
"u. c #CB865A",
"i. c #DC8353",
"p. c #D58A54",
"a. c #D28E53",
"s. c #E49B5A",
"d. c #E28453",
"f. c #DEA95C",
"g. c #E7A95C",
"h. c #C48769",
"j. c #D48A67",
"k. c #C89464",
"l. c #D59968",
"z. c #C98B75",
"x. c #E29A65",
"c. c #DBA766",
"v. c #DEB16A",
"b. c #CEA577",
"n. c #D5A876",
"m. c #DCB57B",
"M. c #C8B776",
"N. c #EDAF6D",
"B. c #E8AA67",
"V. c #EEB36A",
"C. c #E7B969",
"Z. c #F1B264",
"A. c #F2B46B",
"S. c #F7BE68",
"D. c #ECB475",
"F. c #E8BB77",
"G. c #F1BA75",
"H. c #ECAB6F",
"J. c #DDCA7B",
"K. c #CFC472",
"L. c #FBC66E",
"P. c #F6CA6C",
"I. c #F9CA6B",
"U. c #F9C866",
"Y. c #F5CB72",
"T. c #F9C872",
"R. c #FBC57D",
"E. c #F8C777",
"W. c #F6DC7D",
"Q. c #F8D778",
"!. c #ECC873",
"~. c #F5E278",
"^. c #9B8D91",
"/. c #AF918F",
"(. c #B8A588",
"). c #B3B29E",
"_. c #B6AFAB",
"`. c #B5B3A8",
"'. c #B1B1B3",
"]. c #C49D87",
"[. c #CEAD87",
"{. c #CFAF88",
"}. c #EAB982",
"|. c #E3BC9A",
" X c #F2BC85",
".X c #CAB9A8",
"XX c #D8B6A9",
"oX c #DDCA8E",
"OX c #D9C69F",
"+X c #E4C986",
"@X c #F6C883",
"#X c #EDD88B",
"$X c #FAD582",
"%X c #F4DB83",
"&X c #F9DC84",
"*X c #F4DD8C",
"=X c #F8D78A",
"-X c #F4DB94",
";X c #F7DA96",
":X c #F3E184",
">X c #FBE885",
",X c #FCF38B",
"<X c #FCF687",
"1X c #FAEA94",
"2X c #F7EB9A",
"3X c #FAE798",
"4X c #FBF492",
"5X c #FAF49A",
"6X c #F6F797",
"7X c #DEC8A8",
"8X c #DBD0B8",
"9X c #EEDCA4",
"0X c #F2DDAE",
"qX c #EDE8AC",
"wX c #F7E7A5",
"eX c #FAF4A4",
"rX c #F8F6AD",
"tX c #EAE5B4",
"yX c #F3E4B7",
"uX c #FBF6BB",
"iX c #F7F6B8",
"pX c #E5DFCC",
"aX c #DBE6DE",
"sX c #F8F6C5",
"dX c #FAFADA",
"fX c #FBF8D6",
"gX c #EFEAC9",
"hX c #F8FCE7",
"jX c #EEFFFA",
"kX c #F3FEFC",
"lX c #F0FFF5",
/* pixels */
"                                                          ",
"                                                          ",
"  [.m.#X#X*X3X*X1X1XrXsXuXwXeXuXfXdXfXrX5XqXS sXuXsXdXlX  ",
"  s Y ~ &.&.D.a.S.U.U.E.T.I.W.1X5X6X<X,XeXdXkXlXkXfX5XiX  ",
"  m Y [ *.*.*.t.U.U.!.U.l.I.W.,X6X>X,X,X6XhXjXjXkXfX6XiX  ",
"  m E / =.;.;.=.C.| F.u.a.Y.Q.,XJ.~.,X,X6XhXjXjXkXdX6XsX  ",
"  : g j G R ! ~ o.T J o.x.s.l.' c ( oX*X1XuXsXsXqX3X%Xr.  ",
"  < X @ @ = 6 0 0 q O r r r q @ . 2 r x b b l l k x x u   ",
"  r ) ,.9.0.q.).'.'._.r.2.O O $ A w.0.0.q.9.q.(.).`.'.D   ",
"  U H k.<.J.#X%.qXoX8.;Xu.4.oXOXtX(.oXE.,.:X!.,.2X9XgXaX  ",
"  E o.D.-.m.@X~ -XC.{ *Xt.i.C.eXrXz.m.I.) #XD.! :XP.>XsX  ",
"  %.A.E.c.k.p.&.i.t.=.l.H.&.B.5X1Xx.j.p.=.i.i.h.c.R.I.*X  ",
"  O.U.n.c 3 } D.G.B.3 9 l.H.g.:Xn.c 4 { D.G.v.3 a l.E.&X  ",
"  o.Q.@.@ ` n.5 i 4.n.X e =.f.4X@.+ ] b.5 u O.b.# p g.%X  ",
"  O.W.2.= 3.a I XXq b.< p ;.v.5X#.= 6.a I XXq M.$ a s.%X  ",
"  O.*X^.8 4.A B F v k.0 h =.g.sX^.e 3.T F P C l.& C x.=X  ",
"  %.E.{.Z ^ l.h y z...d G j.C.eX.X+.! z.h q k.~ m ! g.Q.  ",
"  U a.|..X8.8.4.3.3.<.y.*.B.Q.>XrXXX/.7.h.h.3.6.k.N.Q.M.  ",
"  Q y.B.;X-X&X&X~.Q.~.R.g.Y.R.Q.W.wX0X%XQ.W.W.&XQ.E.%Xe.  ",
"  v $.c.I.%X| o.P.Y.J.T u.g.Y.I.Q.5.| C.~.#X( y.Q.~.:X9.  ",
"  R ` G c.;Xz C G.@X7XO ^ x.L.T.0XD N H.1XyX> ^ $XK.>.M.  ",
"  ^ _ m O.T : 0 ) h.V @ s  .p.OX/.1 & X.gXV $ g n.`.A wX  ",
"  6 & = 6 = # # & > # # # 7 t t < $ @ : u = @ % t n : w   ",
"  + & * 2 ; - - : : ; - 6 & < < < - ; < < ; - : 1 1 * ,   ",
"  ^ W d ]._ t w 7X8XM 1 j [.9XgX^.8 8 {.pXV 6 h yX_._ yX  ",
"  / ` F l.yXV P F.rX8X9  .R.U.*XgX#.N v.2XpXy W =XM.' =X  ",
"  / =.g.U.-XL R G.>XoXa O.R.U.Q.1X' U C.>X-Xx { @XP.P.%X  ",
"  ^ =.a.Z.Z.V.c.A.V.C.S.V.Z.Z.B.Z.V.V.V.Z.Z.S.V.B.Z.N.}.  ",
"  s U ..} { H h / [ -./ -.~ [ -.[ K ] ..} { G H } -.! j   ",
"    t g d i @ @ p g p i s s g p i O t g d p . @ m i u     "
};
